<svg xmlns="http://www.w3.org/2000/svg" width="62.8" height="63" viewBox="0 0 62.8 63"><path d="M39.8 6.9l3.3-5.4H19.6l3.3 5.4h16.9zm-8.4 14.2L23.8 8.5h15.1l-7.5 12.6zM11.7 1.5h6.4l11.9 20c-1.9.2-3.7.9-5.2 1.8L11.7 1.5zm33.1 0h6.3l-13 21.9c-1.6-1-3.3-1.7-5.2-1.8L44.8 1.5zM32.1 28.9v8.7H34v1.6h-5.2v-1.6h1.8v-6H29V30h1.6v-1.1h1.5zm-.7 16c-6.1 0-11-5-11-11s5-11 11-11c6.1 0 11 5 11 11s-4.9 11-11 11zM53.8 0L39.3 24.2c2.7 2.3 4.6 5.8 4.6 9.7 0 6.9-5.5 12.4-12.5 12.4-6.8 0-12.4-5.5-12.4-12.4 0-3.9 1.8-7.4 4.7-9.7L9 0h44.8zM9.1 61.1h1.4v-1.5H9.1v1.5zm43.2 0h1.4v-1.5h-1.4v1.5zm5.6-20.4h-1.5v-9.8c0-1.9 1-3.4 2.4-3.6 1.1-.2 1.9 0 2.6.6.6.4 1.2 1.4 1.3 3v14.7c0 1.3-.5 2.5-1.5 3.5l-6 6c-.3.4-.5.8-.5 1.3v.4h1.8v6H55v-4.6H41v4.6h-1.5v-6h1.8v-4.1c0-1.5.6-2.8 1.7-3.9l8-7.8c1.3-1.2 3.2-1.2 4.5.1 1.2 1.3 1.2 3.2-.1 4.5l-3.8 3.7-1-1.1 3.8-3.7c.7-.7.7-1.8 0-2.4-.7-.7-1.8-.7-2.4 0l-8 7.8c-.7.8-1.2 1.8-1.2 2.9v4.1H53v-.4c0-.9.4-1.7 1-2.2l5.9-5.9c.7-.7 1.1-1.6 1.1-2.5v-15c0-1-.3-1.6-.7-1.9-.5-.4-1.1-.4-1.5-.3-.7.2-1.2 1.1-1.2 2.2v9.8zM8 57v-.4c0-.5-.2-1-.5-1.3l-6-6c-1-.9-1.5-2.1-1.5-3.5V30.9c0-1.7.7-2.5 1.2-3 .7-.6 1.6-.8 2.6-.6 1.5.2 2.4 1.7 2.4 3.6v9.8H4.8v-9.8c0-1.3-.5-2.1-1.2-2.2-.5-.1-1.1-.1-1.5.3-.5.4-.7 1.1-.7 1.9v14.9c0 1 .4 1.8 1.1 2.5l6 6c.7.6 1 1.4 1 2.2v.5h10.1v-4.1c0-1.2-.4-2.1-1.2-2.9l-8-7.8c-.3-.3-.8-.5-1.2-.5-.5 0-.9.2-1.2.5-.7.7-.7 1.8 0 2.4l3.8 3.7-1 1.1L7 45.7c-.6-.6-1-1.4-1-2.2s.3-1.7.9-2.2c1.2-1.3 3.2-1.4 4.5-.1l8 7.8c1.1 1 1.7 2.4 1.7 3.9V57h1.8v6h-1.5v-4.6H7.6V63H6.1v-6H8z" fill-rule="evenodd" clip-rule="evenodd" fill="#434a52"></path></svg>