<svg xmlns="http://www.w3.org/2000/svg" width="56.5" height="63" viewBox="0 0 56.5 63"><path d="M13.7 4.7V7c.8.1 1.4.4 2 .9.8.7 1.2 1.5 1.2 2.5h-1.4c0-.6-.2-1.1-.7-1.4-.9-.9-2.6-.9-3.6 0-.4.4-.7.9-.7 1.4 0 .6.2 1.1.7 1.4.5.5 1.2.7 1.8.7 1.1 0 2 .3 2.8 1 .8.7 1.2 1.5 1.2 2.5s-.4 1.8-1.2 2.5c-.6.5-1.2.9-2 1v2.2h-1.4v-2.2c-.8-.2-1.4-.5-2-1-.8-.7-1.2-1.5-1.2-2.5h1.4c0 .6.2 1.1.7 1.4 1 .8 2.7.8 3.6 0 .4-.4.7-.9.7-1.4 0-.6-.2-1.1-.7-1.4-.5-.5-1.2-.7-1.8-.7-1.1 0-2-.3-2.8-1-.8-.7-1.2-1.5-1.2-2.5s.4-1.8 1.2-2.5c.6-.5 1.2-.8 2-.9V4.7h1.4zm-.5-3.2c6.4 0 11.7 5.2 11.7 11.6 0 6.4-5.3 11.7-11.7 11.7-6.4 0-11.7-5.3-11.7-11.7C1.4 6.7 6.7 1.5 13.2 1.5zm0 24.8c7.2 0 13.2-5.9 13.2-13.2C26.3 6 20.5 0 13.2 0S0 6 0 13.2c0 7.2 6 13.1 13.2 13.1zM4.6 38.7h-.4v-1.4c.3 0 28.8.7 37.3-23.8l-3.7 2-.7-1.2 6-3.2 3.2 6.1-1.3.6-2.1-3.9C34.7 37.8 8.3 38.7 4.6 38.7zm11.9 22.8H26v-18h-9.5v18zM2 61.6h9.4v-11H2v11zm29 0h9.5V38.7H31v22.9zm14.5 0H55V25.7h-9.5v35.9zM.6 63H13V49.1H.6V63zm14.5 0h12.4V42.1H15.1V63zm14.5 0H42V37.3H29.6V63zm14.5 0h12.4V24.3H44.1V63z" fill-rule="evenodd" clip-rule="evenodd" fill="#434a52"></path></svg>