<svg xmlns="http://www.w3.org/2000/svg" width="63" height="63" viewBox="0 0 63 63"><path d="M44.3 10.1c0-4.8 3.9-8.6 8.6-8.6 4.7 0 8.6 3.9 8.6 8.6 0 4.7-3.9 8.6-8.6 8.6-4.7 0-8.6-3.8-8.6-8.6zM27.7 26.8c-.5-.2-.8-.5-1.2-1.1-1-1.2-1.2-3.9-1.3-5.5.6.1 1.3.4 2 .7 1.4.6 2.5 1.2 3.1 2 1 1.3.9 2.1.2 2.9-.7-.8-1.2-1.3-1.2-1.4l-1 1s.4.5 1.2 1.3c-.8.2-1.3.3-1.8.1zm19.6.5c.1-.6.6-1.2 1.6-1.7.8-.5 2.1-.7 3.9-.7 1 0 1.7.1 2.4.1-.7 1.6-2.1 4.3-3.7 5.1-1.6.9-2.6.9-3.5-.5 1.1-.4 1.7-.6 1.7-.6l-.3-1.5c-.1 0-1 .2-2.1.7v-.9zm-39 29.1h1.5V55H8.3v1.4zm-3.1 0h1.5V55H5.2v1.4zm14.2-14.2h-5.5v14.5h4.6l13.3 4.5c1.8.7 3.9.5 5.5-.4l22.9-12c.6-.3 1.1-.7 1.3-1.3.3-.6.3-1.2 0-1.7-.5-1.1-1.7-1.6-2.9-1.2l-16.1 7.2c-.5.2-1 .4-1.6.4H29.4c-.3 0-1.7.4-1.7 1.6h-1.5c0-2.1 1.9-3 3.1-3.1h11.4c1.2 0 2-1 2-2 0-1.2-.9-2-1.9-2H31l-7.5-3.5c-1.2-.7-2.7-1-4.1-1zm0-1.5c1.6 0 3.3.4 4.8 1.1l7.4 3.4h5.1c-.8-6.2-2.9-12.2-6.2-17-.1-.2-.3-.3-.4-.5-.8.5-1.8.9-3 .5-.6-.3-1.2-.8-1.9-1.6-1.7-2.2-1.6-7.2-1.6-7.4v-.8l.9.1c.1 0 1.5.3 3.2.9 1.7.7 3 1.5 3.6 2.4 1.5 1.8 1.5 3.4 0 4.9 0 .1.1.2.1.3 2.8 4 4.9 9 6 14.3.1-.8.3-1.6.5-2.4.1-.7.2-1.3.4-1.8 1.7-7.3 4.7-13.7 8.3-18.9-2.4-1.9-3.9-4.7-3.9-7.9C42.8 4.6 47.4 0 52.9 0 58.4 0 63 4.6 63 10.1s-4.6 10.1-10.1 10.1c-1.8 0-3.6-.5-5-1.4-2.8 3.8-5 8.3-6.7 13.3 1.6-1.6 3.3-2.6 4.8-3.3-.2-.5-.3-1.1-.2-1.6.2-1.2 1-2 2.3-2.8 1.1-.7 2.6-1 4.7-1 1.9 0 3.5.3 3.6.3l.9.2-.3.7c-.1.2-1.9 5.2-4.7 6.8-1 .5-1.7.8-2.5.8-1.6 0-2.5-1.2-3.1-2.1-2.5 1.2-5.9 3.4-7.1 7.3-.6 2.5-1.1 5.1-1.5 7.8h2.7c1.8.1 3.4 1.6 3.4 3.5 0 .2-.1.5-.1.7l13.7-6c.9-.4 1.9-.4 2.8 0 1 .4 1.6 1.2 2 2 .4.9.4 1.8.1 2.8-.4 1-1.2 1.6-2 2L37.9 62c-1.3.7-2.6 1-4 1-1 0-1.8-.2-2.7-.5L18 58.2h-4.2v2.5H2.7v-1.5h9.7V39.6H0v-1.5h13.9v2.5h5.5z" fill-rule="evenodd" clip-rule="evenodd" fill="#434a52"></path></svg>