<svg xmlns="http://www.w3.org/2000/svg" width="63" height="63" viewBox="0 0 63 63"><path d="M32.2 8h-1.4V2.7l-1.9 1.9-1-1.1L31.5 0l3.6 3.6-1 1.1-1.9-1.9V8zm-1.4 3h1.5V9.5h-1.5V11zm0 2.8h1.5v-1.5h-1.5v1.5zm20.6-3.1h-2.7V9.2h5.1v5.1h-1.5v-2.7l-3.7 3.8-1.1-1.1 3.9-3.6zM9.2 9.2h5.1v1.5h-2.7l3.8 3.7-1.1 1.1-3.7-3.8v2.7H9.2V9.2zm8.3 7.2l-1-1-1 1 1 1 1-1zm30.1 0l-1-1-1 1 1 1 1-1zm-2 2.1l-1-1-1 1 1 1 1-1zm-26.1 0l-1-1-1 1 1 1 1-1zm6.4.1c.6 0 1.1.1 1.6.4-1 1.1-1.6 2.4-1.6 4 0 1.1.3 2 .8 2.9-.2 0-.5.1-.7.1-2 0-3.7-1.6-3.7-3.7-.1-2 1.5-3.7 3.6-3.7zm14.9 3.7c0 2-1.6 3.7-3.7 3.7-.2 0-.5 0-.7-.1.5-.9.8-1.8.8-2.9 0-1.6-.6-3-1.6-4 .5-.2 1-.4 1.6-.4 2 0 3.6 1.7 3.6 3.7zm-5 .7c0 2.3-1.9 4.3-4.3 4.3-2.3 0-4.3-1.9-4.3-4.3 0-2.3 1.9-4.3 4.3-4.3 2.3 0 4.3 1.9 4.3 4.3zm-9.9 4.3c.6 0 1.1-.1 1.6-.3 1.1 1 2.4 1.6 4 1.6s3-.6 4-1.6c.5.2 1.1.3 1.6.3 2.8 0 5-2.2 5-5s-2.2-5-5-5c-1 0-1.9.3-2.7.9-.9-.5-1.8-.8-2.9-.8-1.1 0-2 .3-2.9.8-.8-.5-1.7-.9-2.7-.9-2.8 0-5 2.2-5 5-.1 2.8 2.2 5 5 5zm-16.4 5H11v-1.5H9.5v1.5zm42.5 0h1.5v-1.5H52v1.5zm-39.7 0h1.5v-1.5h-1.5v1.5zm36.9 0h1.5v-1.5h-1.5v1.5zm11.1-1.5l-1.9-1.9 1.1-1 3.6 3.6-3.6 3.6-1.1-1 1.9-1.9H55v-1.4h5.3zM2.7 32.2l1.9 1.9-1.1 1L0 31.5l3.6-3.6 1.1 1-1.9 1.9H8v1.4H2.7zm16.9 4.4c.1-1 .3-1.6.3-1.7 0-1 .3-1.9.9-2.9.4-.7 1-1.4 1.7-1.7l-.9-1.6-2.4.9c-.2 0-.3.1-.5.2-.5.3-.8.7-1.1 1.1-.4.6-.6 1.2-.6 1.6v.2c-.1 1.2-.3 2.5-.4 4.1h3zm26.8-.1c-.1-1.6-.2-2.9-.4-4.1v-.2c-.1-.5-.3-1-.6-1.6v-.1c-.3-.4-.7-.7-1.1-1-.2-.1-.3-.1-.5-.2l-2.4-.9-.9 1.6c.8.5 1.4 1.1 1.7 1.7v.1c.4.8.7 1.6.8 2.4v.1c0 .7.1 1.4.2 2v-.1h3.2zM33 36.4h-2.8l-3.4-6.3-2.9 1.1c-.8.3-1.5.9-1.8 1.6-.5.7-.7 1.5-.7 2.1v.2s-.3 1.6-.5 4.6v.1h21.4c-.1-1.8-.3-3.5-.5-4.8v-.2c-.1-.6-.3-1.2-.7-1.8v-.1c-.3-.6-.8-1-1.3-1.3l-.6-.3-2.9-1.1-3.3 6.2zm-1-1.3l3.8-6.6 3.6 1.3 1.5-2.8 3.6 1.3c.2.1.5.2.7.3.6.4 1.2.9 1.6 1.6v.1c.4.7.6 1.5.7 2.1v.1c.2 1.4.4 3.1.5 4.9l.2.8h-4.4c.1.7.2 1.5.2 2.2v.8H19.4v-.8c0-.9 0-1.6.3-2.2h-4.4v-.8c.1-1.9.3-3.6.5-4.9v-.1c0-.7.3-1.5.7-2.1l.1-.1c.3-.7.9-1.2 1.6-1.6.2-.1.5-.2.7-.3l3.6-1.3 1.5 2.8 3.6-1.3 3.6 6.6h.8zm-14.6 9.4l1 1 1-1-1-1-1 1zm26.1 0l1 1 1-1-1-1-1 1zm2 2l1 1 1-1-1-1-1 1zm-30.1.1l1 1 1-1-1-1-1 1zm15.4 4.1h1.5v-1.5h-1.5v1.5zm0 2.8h1.5V52h-1.5v1.5zm-20.1-4.8v2.7l3.7-3.8 1.1 1.1-3.8 3.7h2.7v1.5H9.2v-5.1h1.5zm40.7 3.6l-3.8-3.7 1.1-1.1 3.7 3.8v-2.7h1.5v5.1h-5.1v-1.5h2.6zM32.2 55v5.3l1.9-1.9 1 1.1-3.6 3.5-3.6-3.6 1-1.1 1.9 1.9V55h1.4z" fill-rule="evenodd" clip-rule="evenodd" fill="#434a52"></path></svg>