<?xml version="1.0" encoding="UTF-8" standalone="no"?>
<svg xmlns="http://www.w3.org/2000/svg" xmlns:xlink="http://www.w3.org/1999/xlink" xmlns:serif="http://www.serif.com/" width="100%" height="100%" viewBox="0 0 252 153" xml:space="preserve" style="fill-rule:evenodd;clip-rule:evenodd;stroke-linejoin:round;stroke-miterlimit:1.41421;">
  <rect id="Artboard19" x="0" y="0" width="252" height="153" style="fill:none;"></rect>
  <rect x="81.605" y="36.012" width="90" height="90" style="fill:#e0e1e2;fill-opacity:0;"></rect>
  <path d="M146.02,101.931l0,6.212l-1.456,0l0,-3.494c-4.66,5.048 -11.163,7.863 -18.056,7.863c-7.668,0 -14.658,-3.398 -19.414,-9.319l1.165,-0.874c4.465,5.63 11.066,8.834 18.249,8.834c6.698,0 12.814,-2.815 17.279,-7.669l-3.98,0l0,-1.553l6.213,0Zm-41.935,-7.572l-5.048,0l0,-30.966l50.769,0l0,5.048l4.368,0l0,30.286l-50.089,0l0,-4.368Zm48.73,2.912l0,-27.374l-2.912,0l0,24.462l-44.362,0l0,2.912l47.274,0Zm-4.465,-4.368l0,-28.054l-47.857,0l0,28.054l47.857,0Zm-9.125,-23.589l0,0.68c0,2.233 1.844,4.077 3.98,4.077l0.679,0l0,9.707l-0.679,0c-2.233,0 -4.077,1.845 -4.077,4.077l0,0.68l-29.51,0l0,-0.68c0,-2.232 -1.845,-4.077 -4.077,-4.077l-0.68,0l0,-9.707l0.68,0c2.232,0 4.077,-1.844 4.077,-4.077l0,-0.68l29.607,0Zm-1.456,17.765c0.291,-2.427 2.232,-4.466 4.756,-4.757l0,-6.892c-2.426,-0.291 -4.465,-2.233 -4.756,-4.757l-26.695,0c-0.291,2.427 -2.233,4.466 -4.757,4.757l0,6.892c2.427,0.291 4.466,2.233 4.757,4.757l26.695,0Zm-12.62,-14.561l0,1.553c0.583,0.097 1.068,0.291 1.456,0.679c0.68,0.583 0.971,1.262 0.971,2.039l-1.456,0c0,-0.291 -0.194,-0.582 -0.485,-0.874c-0.583,-0.582 -1.748,-0.582 -2.427,0c-0.291,0.195 -0.485,0.583 -0.485,0.874c0,0.291 0.194,0.582 0.485,0.874c0.388,0.194 0.776,0.388 1.262,0.388c0.776,0 1.553,0.291 2.135,0.777c0.68,0.582 0.971,1.261 0.971,2.038c0,0.777 -0.388,1.553 -0.971,2.039c-0.388,0.291 -0.873,0.582 -1.456,0.679l0,1.553l-1.456,0l0,-1.553c-0.582,-0.097 -1.068,-0.291 -1.456,-0.679c-0.679,-0.583 -0.971,-1.262 -0.971,-2.039l1.457,0c0,0.291 0.194,0.583 0.485,0.874c0.582,0.582 1.747,0.582 2.427,0c0.291,-0.194 0.485,-0.583 0.485,-0.874c0,-0.291 -0.194,-0.582 -0.485,-0.874c-0.389,-0.194 -0.777,-0.388 -1.262,-0.388c-0.777,0 -1.553,-0.291 -2.136,-0.776c-0.679,-0.583 -0.971,-1.262 -0.971,-2.039c0,-0.777 0.389,-1.553 0.971,-2.039c0.388,-0.388 0.874,-0.582 1.456,-0.679l0,-1.553l1.456,0Zm-16.599,-18.638l0,3.495c4.659,-5.048 11.163,-7.863 18.055,-7.863c7.572,0 14.658,3.397 19.512,9.416l-1.165,0.873c-4.465,-5.63 -11.066,-8.833 -18.249,-8.833c-6.698,0 -12.814,2.815 -17.279,7.668l3.883,0l0,1.457l-6.213,0l0,-6.213l1.456,0Z" style="fill:#dd4f05;"></path>
</svg>
