<?xml version="1.0" encoding="UTF-8" standalone="no"?>
<svg xmlns="http://www.w3.org/2000/svg" xmlns:xlink="http://www.w3.org/1999/xlink" xmlns:serif="http://www.serif.com/" width="100%" height="100%" viewBox="0 0 252 153" xml:space="preserve" style="fill-rule:evenodd;clip-rule:evenodd;stroke-linejoin:round;stroke-miterlimit:1.41421;">
  <rect id="Artboard14" x="0" y="0" width="252" height="153" style="fill:none;"></rect>
  <rect x="81.605" y="36.012" width="90" height="90" style="fill:#e0e1e2;fill-opacity:0;"></rect>
  <path d="M148.118,68.575c-5.667,0 -9.988,2.017 -9.988,4.61l0,30.923c0,2.593 4.321,4.61 9.988,4.61c5.666,0 9.987,-2.017 9.987,-4.61l0,-30.923c0,-2.689 -4.321,-4.61 -9.987,-4.61Zm-21.513,7.683c-5.666,0 -9.987,2.017 -9.987,4.61l0,23.24c0,2.593 4.321,4.61 9.987,4.61c5.667,0 9.988,-2.017 9.988,-4.61l0,-23.24c0,-2.593 -4.321,-4.61 -9.988,-4.61Zm-21.512,7.779c-5.666,0 -9.988,2.017 -9.988,4.61l0,15.461c0,2.593 4.322,4.61 9.988,4.61c5.666,0 9.988,-2.017 9.988,-4.61l0,-15.461c0,-2.689 -4.226,-4.61 -9.988,-4.61Zm51.572,20.071c0,1.441 -3.649,3.17 -8.547,3.17c-4.898,0 -8.548,-1.729 -8.548,-3.17l0,-5.378c1.729,1.345 4.802,2.113 8.548,2.113c3.745,0 6.818,-0.864 8.547,-2.113l0,5.378Zm-21.512,0c0,1.441 -3.65,3.17 -8.548,3.17c-4.897,0 -8.547,-1.633 -8.547,-3.17l0,-5.378c1.729,1.345 4.802,2.113 8.547,2.113c3.746,0 6.819,-0.864 8.548,-2.113l0,5.378Zm-21.512,0c0,1.441 -3.65,3.17 -8.548,3.17c-4.898,0 -8.547,-1.633 -8.547,-3.17l0,-5.378c1.729,1.345 4.802,2.113 8.547,2.113c3.746,0 6.819,-0.864 8.548,-2.113l0,5.378Zm43.024,-7.779c0,1.441 -3.649,3.17 -8.547,3.17c-4.898,0 -8.548,-1.633 -8.548,-3.17l0,-5.282c1.729,1.345 4.802,2.113 8.548,2.113c3.745,0 6.818,-0.864 8.547,-2.113l0,5.282Zm-21.512,0c0,1.441 -3.65,3.17 -8.548,3.17c-4.897,0 -8.547,-1.633 -8.547,-3.17l0,-5.282c1.729,1.345 4.802,2.113 8.547,2.113c3.746,0 6.819,-0.864 8.548,-2.113l0,5.282Zm-21.512,0c0,1.441 -3.65,3.17 -8.548,3.17c-4.898,0 -8.547,-1.633 -8.547,-3.17l0,-5.282c1.729,1.345 4.802,2.113 8.547,2.113c3.746,0 6.819,-0.864 8.548,-2.113l0,5.282Zm43.024,-7.682c0,1.44 -3.649,3.169 -8.547,3.169c-4.898,0 -8.548,-1.729 -8.548,-3.169l0,-5.282c1.729,1.344 4.802,2.112 8.548,2.112c3.745,0 6.818,-0.864 8.547,-2.112l0,5.282Zm-21.512,0c0,1.44 -3.65,3.169 -8.548,3.169c-4.897,0 -8.547,-1.633 -8.547,-3.169l0,-5.282c1.729,1.344 4.802,2.112 8.547,2.112c3.746,0 6.819,-0.864 8.548,-2.112l0,5.282Zm-30.06,3.073c-4.898,0 -8.547,-1.633 -8.547,-3.169c0,-1.441 3.649,-3.17 8.547,-3.17c4.898,0 8.548,1.633 8.548,3.17c0,1.536 -3.65,3.169 -8.548,3.169Zm51.572,-10.852c0,1.44 -3.649,3.169 -8.547,3.169c-4.898,0 -8.548,-1.633 -8.548,-3.169l0,-5.282c1.729,1.344 4.802,2.112 8.548,2.112c3.745,0 6.818,-0.864 8.547,-2.112l0,5.282Zm-30.06,3.169c-4.897,0 -8.547,-1.633 -8.547,-3.169c0,-1.441 3.65,-3.17 8.547,-3.17c4.898,0 8.548,1.633 8.548,3.17c0,1.536 -3.65,3.169 -8.548,3.169Zm22.185,-30.732l0,6.723l-1.441,0l0,-4.322l-10.66,10.66l-17.574,0l-13.446,13.445l-1.056,-0.96l13.925,-13.925l17.575,0l10.18,-10.18l-4.322,0l0,-1.441l6.819,0Zm-0.672,22.953c-4.898,0 -8.548,-1.633 -8.548,-3.169c0,-1.441 3.65,-3.17 8.548,-3.17c4.898,0 8.547,1.633 8.547,3.17c0,1.536 -3.746,3.169 -8.547,3.169Z" style="fill:#dd4f05;"></path>
</svg>
