<?xml version="1.0" encoding="UTF-8" standalone="no"?>
<svg xmlns="http://www.w3.org/2000/svg" xmlns:xlink="http://www.w3.org/1999/xlink" xmlns:serif="http://www.serif.com/" width="100%" height="100%" viewBox="0 0 252 153" xml:space="preserve" style="fill-rule:evenodd;clip-rule:evenodd;stroke-linejoin:round;stroke-miterlimit:1.41421;">
  <rect id="Artboard12" x="0" y="0" width="252" height="153" style="fill:none;"></rect>
  <rect x="81.605" y="36.067" width="90" height="90" style="fill:#e0e1e2;fill-opacity:0;"></rect>
  <path d="M95.105,70.39l63,0l0,35.588l-63,0l0,-35.588Zm61.654,34.145l0,-32.702l-60.115,0l0,32.702l60.115,0Zm-46.457,-5.771l1.443,0l0,1.443l-1.443,0l0,-1.443Zm3.463,0l1.443,0l0,1.443l-1.443,0l0,-1.443Zm3.463,0l1.442,0l0,1.443l-1.442,0l0,-1.443Zm-13.851,0l1.443,0l0,1.443l-1.443,0l0,-1.443Zm3.463,0l1.443,0l0,1.443l-1.443,0l0,-1.443Zm-6.829,0l1.443,0l0,1.443l-1.443,0l0,-1.443Zm20.679,0l1.443,0l0,1.443l-1.443,0l0,-1.443Zm24.238,0l1.443,0l0,1.443l-1.443,0l0,-1.443Zm-6.925,0l1.443,0l0,1.443l-1.443,0l0,-1.443Zm13.851,0l1.442,0l0,1.443l-1.442,0l0,-1.443Zm-3.463,0l1.443,0l0,1.443l-1.443,0l0,-1.443Zm-6.925,0l1.443,0l0,1.443l-1.443,0l0,-1.443Zm-13.851,0l1.443,0l0,1.443l-1.443,0l0,-1.443Zm-3.462,0l1.443,0l0,1.443l-1.443,0l0,-1.443Zm10.388,0l1.442,0l0,1.443l-1.442,0l0,-1.443Zm-3.463,0l1.443,0l0,1.443l-1.443,0l0,-1.443Zm-31.067,-5.386l53.381,0l0,1.443l-53.381,0l0,-1.443Zm0.564,-12.748c-0.265,0 -0.441,0.177 -0.53,0.441c-0.088,0.265 0,0.53 0.177,0.706l2.911,2.823l-0.706,3.97c-0.088,0.265 0.088,0.529 0.265,0.617c0.088,0.089 0.265,0.089 0.353,0.089c0.088,0 0.176,0 0.353,-0.089l3.617,-1.94l3.616,1.94c0.265,0.089 0.53,0.089 0.706,-0.088c0.177,-0.176 0.265,-0.441 0.265,-0.617l-0.706,-3.97l2.911,-2.823c0.177,-0.176 0.265,-0.441 0.177,-0.706c-0.089,-0.264 -0.265,-0.441 -0.53,-0.441l-4.058,-0.529l-1.764,-3.617c-0.265,-0.441 -0.97,-0.441 -1.235,0l-1.764,3.617l-4.058,0.617Zm5.028,0.353l1.323,-2.734l1.324,2.734c0.088,0.177 0.264,0.353 0.529,0.353l2.999,0.441l-2.205,2.117c-0.088,0.089 -0.177,0.353 -0.177,0.53l0.53,2.999l-2.647,-1.411c-0.088,-0.089 -0.176,-0.089 -0.353,-0.089c-0.088,0 -0.176,0 -0.353,0.089l-2.646,1.411l0.529,-2.999c0,-0.177 0,-0.441 -0.176,-0.618l-2.206,-2.117l3,-0.441c0.264,0.088 0.441,-0.088 0.529,-0.265Zm27.687,-0.109l20.102,0l0,1.443l-20.102,0l0,-1.443Zm7.695,-3.751l12.311,0l0,1.443l-12.311,0l0,-1.443Zm-36.069,-15.293c0.193,-0.577 0.577,-1.058 1.154,-1.25c2.116,-0.866 4.329,-1.347 6.637,-1.347l29.336,-0.192l0,-1.443l-10.099,0.096c-0.481,0 -0.77,-0.288 -0.77,-0.673c0,-0.481 0.289,-0.77 0.673,-0.77l10.869,-0.096c0.193,0 0.385,0.096 0.481,0.193c0.096,0.096 0.192,0.288 0.192,0.48l0,2.213l1.251,0c1.058,0 2.116,0.481 2.693,1.346l1.635,0c1.058,0 1.924,0.866 1.924,1.924c0,0.481 -0.193,0.962 -0.577,1.347c-0.385,0.384 -0.866,0.577 -1.347,0.577l-1.635,0c-0.577,0.865 -1.539,1.442 -2.693,1.442l-32.029,0.193c-2.309,0 -4.425,-0.385 -6.541,-1.251c-0.577,-0.192 -0.961,-0.673 -1.154,-1.25l-1.827,0c-0.385,0 -0.674,-0.289 -0.674,-0.77c0,-0.48 0.289,-0.769 0.674,-0.769l1.827,0Zm39.724,-1.347l-2.02,0l-29.913,0.193c-2.116,0 -4.136,0.385 -6.06,1.25c-0.192,0.096 -0.384,0.385 -0.288,0.673c0,0.289 0.096,0.578 0.385,0.674c1.923,0.769 3.943,1.154 5.963,1.154l31.933,-0.192c0.962,0 1.827,-0.866 1.827,-1.924c0,-0.962 -0.769,-1.828 -1.827,-1.828Zm-9.381,2.865l-0.015,-1.924l-1.443,0.011l0.015,1.924l1.443,-0.011Zm13.805,-0.652c0.096,0 0.193,0 0.289,-0.097c0.096,0 0.096,-0.192 0.096,-0.288c0,-0.289 -0.192,-0.481 -0.481,-0.481l-1.058,-0.096c0.096,0.192 0.096,0.288 0.096,0.481c0,0.192 0,0.288 0,0.481l1.058,0Z" style="fill:#dd4f05;"></path>
</svg>
