<?xml version="1.0" encoding="UTF-8" standalone="no"?>
<svg xmlns="http://www.w3.org/2000/svg" xmlns:xlink="http://www.w3.org/1999/xlink" xmlns:serif="http://www.serif.com/" width="100%" height="100%" viewBox="0 0 252 153" xml:space="preserve" style="fill-rule:evenodd;clip-rule:evenodd;stroke-linejoin:round;stroke-miterlimit:1.41421;">
  <rect id="Artboard15" x="0" y="0" width="252" height="153" style="fill:none;"></rect>
  <rect x="81.605" y="36.012" width="90" height="90" style="fill:#e0e1e2;fill-opacity:0;"></rect>
  <path d="M142.599,51.674c-8.09,0 -14.506,2.79 -14.506,6.416l0,25.293c-0.465,-0.093 -1.023,-0.093 -1.488,-0.093c-1.022,0 -2.045,0.093 -2.975,0.372l0,-7.625c0,-3.627 -6.044,-6.416 -13.762,-6.416c-7.718,0 -13.763,2.789 -13.763,6.416l0,27.896c0,3.627 6.045,6.416 13.763,6.416c3.719,0 7.253,-0.651 9.856,-1.859c2.046,1.208 4.371,1.859 6.881,1.859c2.325,0 4.464,-0.558 6.324,-1.58c2.603,1.022 6.044,1.58 9.67,1.58c8.09,0 14.506,-2.789 14.506,-6.416l0,-45.843c0,-3.626 -6.416,-6.416 -14.506,-6.416Zm-32.731,57.188c-7.346,0 -12.368,-2.604 -12.368,-5.022l0,-6.509c2.232,2.139 6.881,3.627 12.368,3.627c1.301,0 2.51,-0.093 3.719,-0.279c0.837,2.696 2.511,5.114 4.743,6.788c-2.232,0.93 -5.301,1.395 -8.462,1.395Zm4.649,-12.089c0,-6.695 5.486,-12.088 12.088,-12.088c6.696,0 12.089,5.486 12.089,12.088c0,6.602 -5.486,12.089 -12.089,12.089c-6.695,0 -12.088,-5.394 -12.088,-12.089Zm28.082,12.089c-2.975,0 -5.765,-0.372 -8.09,-1.116c2.139,-1.581 3.813,-3.72 4.836,-6.231c1.116,0.093 2.231,0.186 3.347,0.186c5.859,0 10.787,-1.487 13.112,-3.626l0,5.858c-0.093,2.325 -5.487,4.929 -13.205,4.929Zm-15.132,-18.823l0,5.926l5.927,0l0,1.616l-5.927,0l0,5.926l-1.616,0l0,-5.926l-6.034,0l0,-1.616l6.034,0l0,-5.926l1.616,0Zm15.132,10.268c-1.023,0 -1.952,-0.093 -2.882,-0.186c0.279,-1.116 0.465,-2.232 0.465,-3.348c0,-1.581 -0.279,-3.161 -0.837,-4.649c1.116,0.093 2.139,0.186 3.254,0.186c5.859,0 10.787,-1.488 13.112,-3.627l0,6.602c0,2.418 -5.394,5.022 -13.112,5.022Zm-45.099,-12.275c2.232,2.139 6.881,3.534 12.368,3.534c1.487,0 2.975,-0.093 4.37,-0.279c-0.744,1.674 -1.209,3.533 -1.209,5.486c0,0.837 0.093,1.674 0.279,2.511c-1.116,0.093 -2.232,0.186 -3.44,0.186c-7.346,0 -12.368,-2.604 -12.368,-5.022l0,-6.416l0,0Zm45.099,2.883c-1.301,0 -2.603,-0.093 -3.905,-0.279c-1.86,-3.627 -5.207,-6.23 -9.206,-7.16l0,-4.278c2.325,2.139 7.253,3.627 13.111,3.627c5.859,0 10.787,-1.488 13.112,-3.627l0,6.603c0,2.51 -5.394,5.114 -13.112,5.114Zm-45.099,-12.089c2.232,2.139 6.881,3.534 12.368,3.534c5.486,0 10.135,-1.488 12.367,-3.534l0,5.115c-2.976,1.023 -5.486,3.068 -7.16,5.672c-1.674,0.279 -3.348,0.465 -5.207,0.465c-7.346,0 -12.368,-2.604 -12.368,-5.021l0,-6.231l0,0Zm45.099,2.79c-7.718,0 -13.111,-2.697 -13.111,-5.021l0,-6.602c2.325,2.138 7.253,3.626 13.111,3.626c5.859,0 10.787,-1.488 13.112,-3.626l0,6.602c0,2.324 -5.394,5.021 -13.112,5.021Zm-32.731,-10.601c7.346,0 12.367,2.604 12.367,5.022c0,2.417 -4.928,5.021 -12.367,5.021c-7.439,0 -12.368,-2.604 -12.368,-5.021c0,-2.418 5.022,-5.022 12.368,-5.022Zm32.731,1.209c-7.718,0 -13.111,-2.696 -13.111,-5.021l0,-6.323c2.325,2.139 7.253,3.626 13.111,3.626c5.859,0 10.787,-1.487 13.112,-3.626l0,6.323c0,2.325 -5.394,5.021 -13.112,5.021Zm0,-19.155c7.718,0 13.112,2.696 13.112,5.021c0,2.325 -5.394,5.022 -13.112,5.022c-7.718,0 -13.111,-2.697 -13.111,-5.022c0,-2.325 5.393,-5.021 13.111,-5.021Z" style="fill:#dd4f05;"></path>
</svg>
