<?xml version="1.0" encoding="UTF-8" standalone="no"?>
<svg xmlns="http://www.w3.org/2000/svg" xmlns:xlink="http://www.w3.org/1999/xlink" xmlns:serif="http://www.serif.com/" width="100%" height="100%" viewBox="0 0 252 153" xml:space="preserve" style="fill-rule:evenodd;clip-rule:evenodd;stroke-linejoin:round;stroke-miterlimit:1.41421;">
  <rect id="Artboard17" x="0" y="0" width="252" height="153" style="fill:none;"></rect>
  <rect x="81.605" y="36.012" width="90" height="90" style="fill:#e0e1e2;fill-opacity:0;"></rect>
  <path d="M108.428,97.859l0,-0.881c0,-2.754 1.873,-4.957 4.296,-5.729c0.441,-3.415 0.772,-7.05 0.992,-10.906c-0.881,-0.22 -1.653,-0.331 -2.314,-0.551c-0.55,0.22 -1.652,1.102 -2.313,1.763c-0.992,1.101 -2.203,1.652 -3.525,1.652l-0.111,0c-1.101,-0.11 -1.983,-0.44 -2.644,-1.212c-1.101,-1.211 -1.101,-2.533 -0.22,-3.745c1.102,-1.432 3.085,-1.983 4.958,-1.322c2.423,0.881 8.042,2.644 17.626,3.195c11.898,0.771 16.195,-3.526 16.966,-4.407c1.212,-4.958 2.644,-9.585 4.076,-13.551c-2.093,-1.432 -2.864,-4.847 -1.542,-8.042c1.432,-3.525 4.847,-5.398 7.601,-4.296l0.772,0.33l-0.441,0.771c-0.22,0.331 -18.288,37.347 -7.491,57.728c2.754,-0.771 4.957,-1.653 6.499,-2.754l0.992,1.322c-4.407,3.194 -14.542,5.288 -25.779,5.288c-12.119,0 -22.805,-2.424 -26.661,-5.949l1.102,-1.212c1.432,1.322 3.966,2.534 7.271,3.415c1.212,-3.195 2.314,-6.83 3.085,-10.907l-3.195,0Zm34.923,11.127c-4.627,1.102 -10.466,1.763 -16.746,1.763c-6.169,0 -12.008,-0.661 -16.635,-1.763c1.212,-3.305 2.314,-7.05 3.085,-11.347l27.101,0c0.441,3.966 1.432,7.822 3.195,11.347Zm-3.305,-12.999c-0.11,-1.212 -0.11,-2.314 -0.11,-3.526l-25.779,0c-2.094,0 -3.856,1.543 -4.187,3.526l30.076,0Zm-0.11,-5.178c0.11,-4.187 0.661,-8.483 1.542,-12.559c-2.534,1.762 -7.491,3.966 -16.525,3.415c-3.856,-0.22 -7.161,-0.661 -9.805,-1.212c-0.22,3.636 -0.551,7.161 -0.991,10.356l25.779,0Zm-5.031,-4.204l0,1.5l-15.3,0l0,-1.5l15.3,0Zm-27.248,-6.262c-0.661,0.771 -1.543,1.102 -2.424,1.102c-0.551,0 -1.102,-0.221 -1.432,-0.551c-0.551,-0.551 -0.551,-1.102 -0.11,-1.653c0.44,-0.661 1.212,-0.991 2.093,-0.991c0.33,0 0.661,0.11 0.991,0.22c0.551,0.22 1.322,0.441 2.204,0.771c-0.441,0.331 -0.992,0.771 -1.322,1.102Zm38.338,-25.669c0.881,-2.203 2.754,-3.636 4.407,-3.636c0.11,0 0.11,0 0.22,0c-0.771,1.543 -2.314,4.958 -3.966,9.365c-1.212,-1.102 -1.542,-3.526 -0.661,-5.729Z" style="fill:#dd4f05;"></path>
</svg>
