<?xml version="1.0" encoding="UTF-8" standalone="no"?>
<svg xmlns="http://www.w3.org/2000/svg" xmlns:xlink="http://www.w3.org/1999/xlink" xmlns:serif="http://www.serif.com/" width="100%" height="100%" viewBox="0 0 252 153" xml:space="preserve" style="fill-rule:evenodd;clip-rule:evenodd;stroke-linejoin:round;stroke-miterlimit:1.41421;">
  <rect id="Artboard18" x="0" y="0" width="252" height="153" style="fill:none;"></rect>
  <rect x="81.605" y="36.012" width="90" height="90" style="fill:#e0e1e2;fill-opacity:0;"></rect>
  <path d="M151.863,73.425c-1.344,-5.474 -4.226,-10.372 -8.451,-14.214c-5.282,-4.898 -12.197,-7.587 -19.496,-7.587c-0.384,0 -0.672,0 -1.056,0.097l0,-0.097c-3.457,0.097 -6.819,0.865 -9.988,2.209c-1.728,-1.632 -4.033,-2.593 -6.53,-2.593c-5.282,0 -9.604,4.322 -9.7,9.604c0,1.921 0.768,4.034 1.825,6.05c-2.113,4.13 -3.362,8.836 -3.362,13.445c0,8.067 3.362,15.75 9.316,21.224c5.282,4.898 12.197,7.587 19.495,7.587c0.289,0 0.577,0 0.865,-0.096c4.802,-0.192 9.411,-1.44 13.541,-3.841c2.305,2.881 4.129,4.802 4.322,4.994l0.48,0.576l0.48,-0.576c0.768,-0.576 14.405,-14.886 14.501,-24.874c-0.096,-4.898 -2.496,-9.219 -6.242,-11.908Zm-25.083,35.245c-0.09,0.001 -0.175,0.006 -0.175,0.096c0.042,0 0.066,-0.018 0.087,-0.039l0.019,-0.018c0.021,-0.02 0.045,-0.039 0.087,-0.039l-0.018,0Zm16.536,0.096c-2.593,-2.785 -13.349,-15.078 -13.349,-23.433c0,-7.298 5.954,-13.349 13.349,-13.349c7.395,0 13.253,6.051 13.349,13.349c-0.096,8.355 -10.852,20.648 -13.349,23.433Zm-18.631,-1.056l0,-13.349c2.401,0.096 4.802,0.384 7.01,1.056c0.673,1.249 1.345,2.401 2.113,3.554c-2.401,5.185 -5.666,8.355 -9.123,8.739Zm-1.441,-13.349l0,13.349c-4.129,-0.48 -7.875,-4.706 -10.18,-11.044c3.17,-1.441 6.627,-2.209 10.18,-2.305Zm6.339,12.773c1.92,-1.537 3.745,-3.746 5.186,-6.723c0.864,1.345 1.824,2.593 2.689,3.745c-2.401,1.345 -5.09,2.401 -7.875,2.978Zm-23.529,-6.147c1.728,-1.536 3.649,-2.785 5.762,-3.841c1.632,4.417 4.033,7.971 6.722,9.988c-4.609,-0.865 -8.931,-2.978 -12.484,-6.147Zm2.881,-19.879l-12.293,0c0.192,7.106 3.169,14.021 8.259,19.015c1.921,-1.729 4.034,-3.073 6.339,-4.226c-1.345,-4.321 -2.209,-9.411 -2.305,-14.789Zm14.309,0l0,11.812c-3.745,0.096 -7.299,0.865 -10.66,2.305c-1.344,-4.129 -2.113,-8.931 -2.209,-14.117l12.869,0Zm5.954,0l-4.513,0l0,11.908c2.113,0 4.129,0.288 6.146,0.769c-1.344,-2.882 -2.305,-5.763 -2.305,-8.356c0,-1.536 0.288,-2.977 0.672,-4.321Zm14.118,-2.881c-4.034,0 -7.299,3.265 -7.299,7.298c0,4.034 3.265,7.299 7.299,7.299c4.033,0 7.299,-3.265 7.299,-7.299c-0.096,-4.033 -3.362,-7.298 -7.299,-7.298Zm0,13.157c-3.169,0 -5.858,-2.593 -5.858,-5.859c0,-3.169 2.593,-5.858 5.858,-5.858c3.169,0 5.858,2.593 5.858,5.858c-0.096,3.17 -2.689,5.859 -5.858,5.859Zm-20.072,-11.717l0,-11.812c-3.073,-0.096 -6.05,-0.673 -8.835,-1.633c-0.865,1.921 -2.113,3.841 -3.361,5.474c-0.385,2.593 -0.673,5.282 -0.673,7.971l12.869,0Zm6.435,0c1.344,-3.361 3.937,-6.05 7.202,-7.491c-0.384,-2.401 -0.864,-4.609 -1.536,-6.626c-3.361,1.44 -6.915,2.209 -10.66,2.305l0,11.812l4.994,0Zm-20.84,0c0.096,-1.921 0.192,-3.841 0.384,-5.666c-1.345,1.633 -2.401,2.785 -2.497,2.881l-0.48,0.576l-0.48,-0.576c-0.289,-0.288 -3.842,-4.033 -6.435,-8.355c-1.633,3.457 -2.593,7.299 -2.689,11.14l12.197,0Zm-2.593,-26.986c4.513,0 8.163,3.649 8.259,8.163c0,4.994 -6.339,12.389 -8.259,14.405c-1.921,-2.112 -8.163,-9.411 -8.259,-14.405c0.096,-4.514 3.745,-8.163 8.259,-8.163Zm43.792,19.591c-2.016,-1.056 -4.321,-1.632 -6.818,-1.632c-1.729,0 -3.458,0.288 -4.994,0.864c-0.384,-2.401 -0.96,-4.61 -1.633,-6.626c2.209,-1.153 4.322,-2.497 6.243,-4.226c3.457,3.265 5.858,7.203 7.202,11.62Zm-34.093,-11.428c0,-0.768 -0.096,-1.441 -0.192,-2.113c2.209,-3.361 4.802,-5.378 7.587,-5.666l0,13.253c-2.785,-0.096 -5.57,-0.576 -8.259,-1.44c0.48,-1.345 0.864,-2.786 0.864,-4.034Zm8.74,-7.779c4.033,0.48 7.779,4.61 10.18,11.044c-3.17,1.345 -6.627,2.113 -10.18,2.209l0,-13.253Zm-14.118,7.875c0,-2.401 -1.92,-4.322 -4.321,-4.322c-2.401,0 -4.322,1.921 -4.322,4.322c0,2.401 1.921,4.322 4.322,4.322c2.401,0 4.321,-1.921 4.321,-4.322Zm-7.202,0c0,-1.537 1.248,-2.881 2.881,-2.881c1.536,0 2.881,1.248 2.881,2.881c0,1.537 -1.249,2.881 -2.881,2.881c-1.537,0 -2.881,-1.344 -2.881,-2.881Zm38.51,-1.248c-3.553,-3.074 -7.779,-5.186 -12.388,-6.147c2.689,2.017 4.993,5.474 6.626,9.892c2.017,-0.96 3.938,-2.209 5.666,-3.745l0.096,0Zm-28.042,-4.802c1.44,-0.577 2.977,-0.961 4.417,-1.345c-1.152,0.865 -2.209,2.017 -3.265,3.361c-0.192,-0.672 -0.576,-1.344 -1.152,-2.016Zm7.106,-2.785c0.096,-0.096 0.192,-0.096 0.384,-0.096c-0.192,0.096 -0.288,0.096 -0.384,0.096Z" style="fill:#dd4f05;"></path>
</svg>
