<?xml version="1.0" encoding="UTF-8" standalone="no"?>
<svg xmlns="http://www.w3.org/2000/svg" xmlns:xlink="http://www.w3.org/1999/xlink" xmlns:serif="http://www.serif.com/" width="100%" height="100%" viewBox="0 0 252 153" xml:space="preserve" style="fill-rule:evenodd;clip-rule:evenodd;stroke-linejoin:round;stroke-miterlimit:1.41421;">
  <rect id="Artboard20" x="0" y="0" width="252" height="153" style="fill:none;"></rect>
  <rect x="81.605" y="36.012" width="90" height="90" style="fill:#e0e1e2;fill-opacity:0;"></rect>
  <path d="M149.092,57.556c2.035,0 3.683,1.648 3.683,3.683l0,5.913l3.586,0c0.969,0 1.744,0.775 1.744,1.744l0,3.296c0,0.969 -0.775,1.744 -1.744,1.744l-3.78,0l0,9.886l3.586,0c0.969,0 1.745,0.776 1.745,1.745l0,3.295c0,0.97 -0.776,1.745 -1.745,1.745l-3.586,0l0,5.912c0,2.036 -1.648,3.683 -3.683,3.683l-4.362,0l0,1.648c0,1.454 -1.163,2.617 -2.617,2.617l-5.234,0c-1.453,0 -2.616,-1.163 -2.616,-2.617l0,-1.648l-20.451,0l0,1.648c0,1.454 -1.163,2.617 -2.617,2.617l-5.234,0c-1.454,0 -2.617,-1.163 -2.617,-2.617l0,-1.744l-4.361,0c-2.036,-0.001 -3.684,-1.648 -3.684,-3.684l0,-35.183c0,-2.035 1.648,-3.683 3.684,-3.683l50.303,0Zm-36.831,44.294l0.097,0l0,-1.648l-7.657,0l0,1.648c0,0.582 0.484,1.163 1.163,1.163l5.234,0c0.581,0 1.163,-0.484 1.163,-1.163Zm31.015,-1.648l-7.657,0l0,1.648c0,0.582 0.485,1.163 1.163,1.163l5.331,0c0.582,0 1.163,-0.484 1.163,-1.163l0,-1.648Zm5.816,-41.192l-50.303,0c-1.26,0 -2.23,0.969 -2.23,2.229l0,35.183c0,1.26 0.97,2.23 2.23,2.23l50.303,0c1.26,0 2.229,-0.97 2.229,-2.23l0,-5.912l-4.071,0l0,4.168l-46.717,0l0,-31.597l46.717,0l0,4.071l4.071,0l0,-5.913c0,-1.26 -0.969,-2.229 -2.229,-2.229Zm-8.239,8.142l4.943,0l0,-2.714l-43.809,0l0,28.786l43.906,0l0,-2.714l-4.943,0c-0.969,0 -1.745,-0.775 -1.745,-1.744l0,-3.296c0,-0.969 0.776,-1.744 1.745,-1.744l4.846,0l0,-9.79l-4.943,0c-0.969,0 -1.744,-0.775 -1.744,-1.744l0,-3.296c0,-0.969 0.775,-1.744 1.744,-1.744Zm-22.001,0.775c-6.01,0 -10.953,4.943 -10.953,10.952c0,6.01 4.943,10.953 10.953,10.953c6.009,0 10.952,-4.943 10.952,-10.953c0,-6.009 -4.846,-10.952 -10.952,-10.952Zm37.509,17.252l-15.411,0c-0.194,0 -0.291,0.097 -0.291,0.291l0,3.296c0,0.193 0.097,0.29 0.291,0.29l15.411,0c0.194,0 0.291,-0.097 0.291,-0.29l0,-3.296c0,-0.194 -0.097,-0.291 -0.291,-0.291Zm-37.509,3.199c-5.234,0 -9.499,-4.265 -9.499,-9.499c0,-5.233 4.265,-9.498 9.499,-9.498c5.233,0 9.498,4.265 9.498,9.498c0,5.234 -4.265,9.499 -9.498,9.499Zm-1.266,-3.18c0.454,0.09 0.902,0.175 1.266,0.175l0,1.454c-0.582,0 -1.067,-0.097 -1.648,-0.194l0.291,-1.454l0.091,0.019Zm3.979,-0.406l0.582,1.357c0.485,-0.194 0.969,-0.485 1.454,-0.873l-0.872,-1.163c-0.388,0.194 -0.776,0.485 -1.164,0.679Zm-8.529,-0.582c0.388,0.388 0.776,0.776 1.26,1.066l0.873,-1.163c-0.388,-0.291 -0.679,-0.581 -0.97,-0.872l-1.163,0.969Zm5.816,-10.274c-2.714,0 -4.943,2.23 -4.943,4.943c0,2.714 2.229,4.943 4.943,4.943c2.713,0 4.943,-2.229 4.943,-4.943c0,-2.713 -2.133,-4.943 -4.943,-4.943Zm32.469,9.79l0,-9.79l-4.071,0l0,9.79l4.071,0Zm-24.812,-2.52c-0.194,0.581 -0.388,1.066 -0.679,1.55l-1.26,-0.678c0.085,-0.17 0.17,-0.358 0.254,-0.548l0.073,-0.164c0.085,-0.19 0.17,-0.379 0.255,-0.548l1.357,0.388Zm-7.657,1.163c-1.939,0 -3.49,-1.551 -3.49,-3.49c0,-1.938 1.551,-3.489 3.49,-3.489c1.938,0 3.489,1.551 3.489,3.489c0.097,1.939 -1.551,3.49 -3.489,3.49Zm-7.851,-2.617c0.097,0.581 0.194,1.066 0.388,1.647l1.356,-0.484c-0.096,-0.388 -0.193,-0.873 -0.29,-1.357l-1.454,0.194Zm14.344,-1.648l1.454,-0.194c-0.097,-0.581 -0.194,-1.066 -0.387,-1.648l-1.357,0.485c0.097,0.485 0.194,0.969 0.29,1.357Zm-12.115,-2.52l-1.26,-0.678c-0.291,0.484 -0.485,0.969 -0.678,1.55l1.357,0.485c0.193,-0.485 0.387,-0.872 0.581,-1.357Zm11.534,-2.035c-0.388,-0.388 -0.775,-0.776 -1.26,-1.067l-0.872,1.164c0.387,0.29 0.678,0.581 0.969,0.872l1.163,-0.969Zm-8.529,-0.582l-0.582,-1.357c-0.484,0.194 -0.969,0.485 -1.454,0.872l0.873,1.164c0.387,-0.291 0.775,-0.485 1.163,-0.679Zm40.126,-4.361l-15.411,0c-0.194,0 -0.291,0.096 -0.291,0.29l0,3.393c0,0.193 0.097,0.29 0.291,0.29l15.411,0c0.194,0 0.291,-0.097 0.291,-0.29l0,-3.296c0,-0.194 -0.097,-0.291 -0.291,-0.291l0,-0.096Zm-36.152,3.876l0.29,-1.453c-0.484,-0.097 -1.066,-0.194 -1.647,-0.194l0,1.454c0.484,0.097 0.969,0.097 1.357,0.193Z" style="fill:#dd4f05;"></path>
</svg>
