<?xml version="1.0" encoding="UTF-8" standalone="no"?>
<svg xmlns="http://www.w3.org/2000/svg" xmlns:xlink="http://www.w3.org/1999/xlink" xmlns:serif="http://www.serif.com/" width="100%" height="100%" viewBox="0 0 252 153" xml:space="preserve" style="fill-rule:evenodd;clip-rule:evenodd;stroke-linejoin:round;stroke-miterlimit:1.41421;">
  <rect id="Artboard13" x="0" y="0" width="252" height="153" style="fill:none;"></rect>
  <rect x="81.605" y="36.067" width="90" height="90" style="fill:#e0e1e2;fill-opacity:0;"></rect>
  <path d="M112.925,53.902c0.282,0.006 0.563,0.016 0.844,0.038c0.606,0.046 1.209,0.135 1.803,0.265c1.416,0.31 2.775,0.859 4.012,1.614c0.542,0.33 1.055,0.702 1.545,1.104l0.019,0.016c0.175,-0.04 0.175,-0.039 0.351,-0.077c0.223,-0.046 0.223,-0.045 0.446,-0.089c0.743,-0.138 1.49,-0.25 2.243,-0.322c2.404,-0.23 4.843,-0.12 7.214,0.348c1.933,0.382 3.82,0.995 5.607,1.826c2.396,1.114 4.611,2.616 6.536,4.427c2.37,2.229 4.297,4.925 5.631,7.893c0.865,1.925 1.481,3.962 1.827,6.044c0.384,2.31 0.438,4.674 0.164,7c-0.109,0.921 -0.273,1.834 -0.482,2.738l-0.013,0.056c0.066,0.081 0.13,0.162 0.193,0.244c0.085,0.11 0.167,0.22 0.249,0.332c0.296,0.414 0.572,0.84 0.821,1.284c0.503,0.899 0.899,1.857 1.178,2.848c0.511,1.814 0.623,3.738 0.341,5.6c-0.178,1.18 -0.517,2.336 -1.006,3.425c-0.673,1.498 -1.625,2.865 -2.797,4.015c-0.979,0.961 -2.111,1.766 -3.341,2.374c-1.309,0.647 -2.727,1.066 -4.177,1.238c-0.557,0.066 -1.118,0.092 -1.679,0.089c-0.39,-0.003 -0.779,-0.018 -1.168,-0.052c-0.761,-0.068 -1.516,-0.203 -2.254,-0.402c-1.183,-0.321 -2.32,-0.809 -3.369,-1.445c-0.542,-0.328 -1.055,-0.697 -1.548,-1.096l-0.051,-0.044c-0.172,0.039 -0.172,0.039 -0.344,0.076c-0.193,0.039 -0.386,0.078 -0.58,0.115c-0.483,0.087 -0.967,0.164 -1.454,0.225c-0.924,0.115 -1.855,0.178 -2.787,0.189c-1.324,0.015 -2.648,-0.074 -3.958,-0.269c-0.704,-0.104 -1.402,-0.242 -2.095,-0.405l-0.178,-0.043l-0.083,-0.021c-0.111,0.083 -0.225,0.164 -0.339,0.244c-0.427,0.295 -0.868,0.568 -1.326,0.813c-1.085,0.579 -2.252,1.004 -3.456,1.257c-1.601,0.336 -3.266,0.37 -4.88,0.104c-1.488,-0.246 -2.931,-0.748 -4.247,-1.483c-1.242,-0.692 -2.368,-1.587 -3.324,-2.639c-0.816,-0.898 -1.507,-1.909 -2.046,-2.997c-0.477,-0.963 -0.835,-1.986 -1.062,-3.037c-0.521,-2.409 -0.36,-4.953 0.465,-7.275c0.338,-0.95 0.785,-1.86 1.329,-2.709c0.22,-0.344 0.458,-0.676 0.708,-1l0.023,-0.029c-0.039,-0.179 -0.075,-0.358 -0.11,-0.538c-0.032,-0.169 -0.063,-0.338 -0.093,-0.508c-0.113,-0.675 -0.203,-1.354 -0.262,-2.037c-0.129,-1.484 -0.124,-2.98 0.013,-4.463c0.105,-1.143 0.295,-2.274 0.554,-3.391l0.005,-0.023c-0.065,-0.08 -0.129,-0.162 -0.193,-0.244c-0.084,-0.109 -0.167,-0.22 -0.248,-0.332c-0.789,-1.096 -1.414,-2.306 -1.834,-3.589c-0.731,-2.233 -0.854,-4.654 -0.357,-6.95c0.249,-1.155 0.657,-2.276 1.207,-3.321c0.639,-1.213 1.467,-2.322 2.447,-3.28c1.057,-1.033 2.289,-1.883 3.628,-2.507c1.177,-0.549 2.438,-0.92 3.724,-1.098c0.555,-0.077 1.113,-0.114 1.673,-0.126c0.171,-0.001 0.171,-0.001 0.341,0Zm27.383,29.762c-0.583,0.012 -1.163,0.058 -1.738,0.153c-1.022,0.168 -2.02,0.477 -2.96,0.913c-0.962,0.447 -1.863,1.029 -2.667,1.722c-1.083,0.934 -1.99,2.068 -2.66,3.332c-0.529,1 -0.908,2.079 -1.121,3.19c-0.23,1.199 -0.27,2.437 -0.116,3.648c0.155,1.218 0.505,2.407 1.035,3.513c0.597,1.248 1.423,2.385 2.422,3.342c1.036,0.993 2.258,1.789 3.586,2.333c1.382,0.567 2.873,0.855 4.366,0.855c1.483,0 2.961,-0.291 4.333,-0.855c1.927,-0.791 3.625,-2.113 4.874,-3.78c0.922,-1.231 1.598,-2.646 1.965,-4.141c0.312,-1.271 0.402,-2.594 0.27,-3.895c-0.114,-1.131 -0.396,-2.245 -0.838,-3.292c-0.521,-1.235 -1.256,-2.376 -2.167,-3.359c-0.973,-1.05 -2.141,-1.916 -3.43,-2.54c-0.98,-0.474 -2.027,-0.804 -3.101,-0.984c-0.531,-0.088 -1.068,-0.135 -1.607,-0.152c-0.149,-0.003 -0.297,-0.004 -0.446,-0.003Zm-27.701,-0.659c-0.535,0.01 -1.067,0.05 -1.596,0.13c-1.071,0.162 -2.119,0.479 -3.101,0.935c-1.298,0.603 -2.478,1.449 -3.468,2.482c-0.928,0.968 -1.685,2.099 -2.224,3.327c-0.459,1.046 -0.76,2.161 -0.889,3.296c-0.149,1.306 -0.077,2.635 0.221,3.916c0.244,1.049 0.639,2.062 1.166,3.002c0.632,1.128 1.456,2.146 2.422,3.005c0.97,0.862 2.085,1.56 3.284,2.053c1.372,0.564 2.85,0.854 4.333,0.854c1.592,0 3.178,-0.327 4.637,-0.964c1.36,-0.593 2.605,-1.453 3.641,-2.515c1,-1.027 1.806,-2.237 2.36,-3.559c0.476,-1.136 0.76,-2.351 0.84,-3.579c0.019,-0.294 0.024,-0.588 0.022,-0.882c-0.003,-0.44 -0.024,-0.879 -0.074,-1.316c-0.086,-0.756 -0.248,-1.503 -0.481,-2.227c-0.61,-1.894 -1.724,-3.619 -3.194,-4.96c-1.096,-1 -2.385,-1.787 -3.778,-2.298c-0.852,-0.312 -1.742,-0.523 -2.644,-0.626c-0.392,-0.045 -0.785,-0.067 -1.18,-0.074c-0.149,-0.001 -0.148,-0.001 -0.297,0Zm0.488,-1.728c0.504,0.016 1.006,0.054 1.505,0.124c0.973,0.137 1.929,0.384 2.846,0.733c1.939,0.739 3.692,1.945 5.084,3.482c1.214,1.342 2.149,2.936 2.718,4.654c0.31,0.936 0.513,1.906 0.603,2.887c0.056,0.62 0.068,1.245 0.043,1.867c-0.058,1.456 -0.359,2.898 -0.89,4.255c-0.437,1.117 -1.029,2.173 -1.751,3.13c-0.327,0.432 -0.681,0.842 -1.056,1.234l-0.069,0.071c1.889,0.373 3.827,0.508 5.749,0.401c0.9,-0.049 1.794,-0.154 2.682,-0.304l0.064,-0.011c-0.098,-0.111 -0.097,-0.111 -0.193,-0.222c-0.102,-0.122 -0.102,-0.121 -0.202,-0.244c-0.33,-0.413 -0.64,-0.84 -0.921,-1.287c-0.683,-1.087 -1.204,-2.275 -1.542,-3.513c-0.438,-1.608 -0.562,-3.296 -0.374,-4.951c0.177,-1.553 0.638,-3.071 1.349,-4.462c0.721,-1.409 1.695,-2.685 2.864,-3.752c1.573,-1.437 3.493,-2.486 5.557,-3.019c1.395,-0.361 2.846,-0.487 4.282,-0.382c1.273,0.094 2.531,0.372 3.723,0.826c1.109,0.423 2.159,0.998 3.114,1.703c0.329,0.244 0.645,0.504 0.952,0.775l0.063,0.058c0.499,-2.683 0.524,-5.448 0.07,-8.139c-0.348,-2.058 -0.981,-4.067 -1.871,-5.955c-1.19,-2.525 -2.846,-4.83 -4.854,-6.769c-1.75,-1.69 -3.767,-3.106 -5.956,-4.171c-1.748,-0.85 -3.604,-1.479 -5.51,-1.861c-1.082,-0.217 -2.178,-0.354 -3.28,-0.416c-0.479,-0.026 -0.958,-0.04 -1.438,-0.036c-0.845,0.007 -1.69,0.057 -2.529,0.154c-0.424,0.048 -0.847,0.111 -1.268,0.182l-0.074,0.013c0.076,0.084 0.15,0.171 0.223,0.258c0.101,0.121 0.101,0.121 0.201,0.244c0.394,0.495 0.757,1.015 1.079,1.56c0.596,1.011 1.056,2.101 1.362,3.234c0.433,1.598 0.557,3.277 0.369,4.922c-0.178,1.553 -0.637,3.07 -1.349,4.462c-1.106,2.163 -2.812,4.004 -4.886,5.271c-1.096,0.67 -2.291,1.178 -3.535,1.5c-1.341,0.348 -2.736,0.476 -4.119,0.393c-1.276,-0.078 -2.539,-0.342 -3.739,-0.783c-1.115,-0.409 -2.174,-0.973 -3.137,-1.667c-0.374,-0.27 -0.731,-0.561 -1.076,-0.866l-0.064,-0.057c-0.173,0.934 -0.291,1.877 -0.349,2.826c-0.107,1.723 -0.02,3.458 0.256,5.163l0,0.002c0.057,-0.053 0.114,-0.105 0.172,-0.158c0.117,-0.103 0.116,-0.103 0.234,-0.206c0.239,-0.202 0.482,-0.399 0.733,-0.585c0.462,-0.343 0.946,-0.655 1.449,-0.934c1.304,-0.724 2.73,-1.221 4.201,-1.464c0.71,-0.117 1.426,-0.17 2.145,-0.175c0.17,0.001 0.17,0.001 0.34,0.005Zm25.918,15.495l-0.001,0.25c-0.003,0.128 -0.003,0.128 -0.008,0.256c-0.017,0.301 -0.044,0.601 -0.09,0.9c-0.125,0.804 -0.362,1.591 -0.721,2.323c0.105,-0.015 0.21,-0.027 0.315,-0.039c0.198,-0.019 0.397,-0.034 0.596,-0.039c0.403,-0.011 0.807,0.01 1.208,0.065c0.286,0.039 0.572,0.092 0.852,0.165c0.028,0.007 0.058,0.021 0.084,0.031c0.051,0.021 0.067,0.026 0.12,0.045c0.071,0.024 0.142,0.046 0.214,0.067c0.435,0.12 0.884,0.191 1.335,0.189c0.366,-0.001 0.733,-0.052 1.072,-0.195l0.042,-0.019l0.044,-0.021l0.06,-0.019c0.021,0 0.042,-0.003 0.063,0.001c0.042,0.006 0.081,0.026 0.111,0.055c0.015,0.015 0.025,0.034 0.038,0.05l0.577,1.072c0.007,0.018 0.015,0.034 0.02,0.052c0.016,0.073 -0.009,0.151 -0.065,0.201c-0.014,0.012 -0.031,0.02 -0.046,0.03c-0.055,0.027 -0.11,0.053 -0.166,0.077c-0.169,0.07 -0.34,0.129 -0.517,0.174c-0.4,0.103 -0.815,0.14 -1.227,0.136c-0.419,-0.004 -0.836,-0.051 -1.248,-0.127c-0.198,-0.036 -0.394,-0.08 -0.589,-0.129c-0.139,-0.035 -0.277,-0.079 -0.416,-0.113l0.008,0.002l0.012,0.001l-0.038,-0.006c-0.107,-0.027 -0.215,-0.053 -0.323,-0.076c-0.094,-0.019 -0.094,-0.018 -0.188,-0.036c-0.307,-0.052 -0.615,-0.088 -0.926,-0.096c-0.666,-0.017 -1.339,0.087 -1.958,0.338c-0.328,0.134 -0.649,0.307 -0.92,0.537l-0.017,0.015l-0.01,0.01l-0.054,0.036c-0.021,0.006 -0.041,0.016 -0.063,0.018c-0.043,0.006 -0.088,-0.003 -0.126,-0.025c-0.019,-0.011 -0.034,-0.027 -0.051,-0.041l-0.825,-0.906c-0.011,-0.018 -0.026,-0.034 -0.035,-0.053c-0.026,-0.059 -0.024,-0.129 0.007,-0.185c0.01,-0.019 0.026,-0.034 0.039,-0.051c0.064,-0.06 0.127,-0.121 0.189,-0.184c0.302,-0.31 0.579,-0.643 0.822,-1.003c0.494,-0.73 0.846,-1.555 1.022,-2.419c0.069,-0.334 0.11,-0.674 0.124,-1.015c0.005,-0.127 0.005,-0.254 0.005,-0.382l-1.855,0c-0.021,-0.003 -0.043,-0.003 -0.064,-0.01c-0.062,-0.02 -0.112,-0.07 -0.132,-0.132c-0.007,-0.021 -0.007,-0.043 -0.01,-0.064l0,-1.236c0.003,-0.022 0.003,-0.044 0.01,-0.064c0.02,-0.062 0.07,-0.112 0.132,-0.132c0.021,-0.007 0.043,-0.007 0.064,-0.01l1.499,0c-0.028,-0.099 -0.072,-0.189 -0.117,-0.28c-0.029,-0.069 -0.049,-0.14 -0.073,-0.21c-0.021,-0.062 -0.043,-0.124 -0.064,-0.185c-0.065,-0.187 -0.129,-0.374 -0.193,-0.561c-0.146,-0.447 -0.282,-0.897 -0.361,-1.362c-0.082,-0.482 -0.097,-0.975 -0.028,-1.46c0.056,-0.39 0.163,-0.774 0.318,-1.136c0.495,-1.157 1.467,-2.086 2.648,-2.523c0.464,-0.172 0.953,-0.264 1.447,-0.279c0.059,-0.001 0.118,-0.002 0.177,-0.001c0.193,0.004 0.384,0.017 0.576,0.044c0.372,0.052 0.738,0.154 1.086,0.297c1.25,0.514 2.242,1.591 2.647,2.881c0.131,0.42 0.199,0.855 0.207,1.295l0,0.057c-0.003,0.021 -0.003,0.043 -0.009,0.064c-0.02,0.062 -0.07,0.113 -0.133,0.133c-0.02,0.007 -0.042,0.007 -0.064,0.01l-1.236,0c-0.021,-0.003 -0.043,-0.003 -0.063,-0.01c-0.021,-0.006 -0.04,-0.016 -0.058,-0.029c-0.035,-0.025 -0.061,-0.06 -0.075,-0.101c-0.015,-0.045 -0.01,-0.096 -0.011,-0.142c-0.001,-0.025 -0.002,-0.05 -0.003,-0.075c-0.005,-0.074 -0.005,-0.074 -0.011,-0.149c-0.015,-0.121 -0.033,-0.242 -0.06,-0.361c-0.075,-0.325 -0.207,-0.636 -0.386,-0.917c-0.278,-0.435 -0.674,-0.794 -1.133,-1.029c-0.588,-0.3 -1.278,-0.396 -1.925,-0.257c-0.334,0.072 -0.653,0.203 -0.943,0.385c-0.329,0.207 -0.617,0.478 -0.844,0.794c-0.129,0.179 -0.238,0.373 -0.323,0.576c-0.068,0.161 -0.121,0.327 -0.159,0.498c-0.039,0.174 -0.061,0.352 -0.068,0.53c-0.002,0.081 0.001,0.161 0.002,0.242c0.003,0.15 0.011,0.299 0.031,0.448c0.031,0.236 0.083,0.469 0.145,0.699c0.124,0.456 0.295,0.898 0.469,1.337c0.022,0.065 0.038,0.132 0.058,0.197c0.07,0.208 0.153,0.411 0.222,0.619l0.014,0.043l4.461,0l0.064,0.01c0.019,0.01 0.04,0.017 0.057,0.029c0.035,0.026 0.062,0.062 0.075,0.103c0.007,0.021 0.007,0.043 0.01,0.064l0,1.237c-0.003,0.021 -0.003,0.043 -0.01,0.063c-0.02,0.063 -0.07,0.112 -0.132,0.133c-0.021,0.006 -0.042,0.006 -0.064,0.01l-4.163,0Zm-31.159,-0.083c0.162,0.418 0.375,0.815 0.629,1.183c0.638,0.924 1.539,1.655 2.568,2.103c1.059,0.46 2.255,0.616 3.396,0.434c0.439,-0.069 0.868,-0.192 1.277,-0.363c0.248,-0.104 0.487,-0.227 0.72,-0.361l0.062,-0.023c0.021,-0.001 0.043,-0.006 0.065,-0.003c0.044,0.005 0.085,0.024 0.117,0.055c0.016,0.015 0.027,0.034 0.04,0.052l0.578,1.071c0.007,0.02 0.017,0.04 0.021,0.061c0.012,0.063 -0.008,0.13 -0.052,0.177c-0.014,0.016 -0.033,0.027 -0.05,0.04c-0.11,0.062 -0.11,0.062 -0.222,0.122c-0.332,0.173 -0.672,0.328 -1.025,0.455c-0.57,0.206 -1.164,0.342 -1.766,0.403c-0.402,0.04 -0.808,0.046 -1.212,0.02c-1.005,-0.064 -1.997,-0.321 -2.903,-0.763c-0.992,-0.484 -1.877,-1.179 -2.58,-2.029c-0.458,-0.554 -0.839,-1.171 -1.128,-1.829c-0.115,-0.262 -0.213,-0.531 -0.3,-0.803l-0.001,-0.002l-2.567,0l-0.064,-0.01c-0.019,-0.01 -0.04,-0.017 -0.057,-0.029c-0.036,-0.026 -0.062,-0.062 -0.075,-0.103c-0.007,-0.021 -0.007,-0.043 -0.01,-0.064l0,-1.236c0.003,-0.022 0.003,-0.044 0.01,-0.064c0.02,-0.062 0.07,-0.112 0.132,-0.132c0.02,-0.007 0.043,-0.007 0.064,-0.01l2.216,0c-0.009,-0.064 -0.015,-0.128 -0.02,-0.192c-0.005,-0.075 -0.008,-0.15 -0.01,-0.225c-0.001,-0.099 -0.005,-0.199 0.002,-0.299c0.01,-0.164 0.038,-0.327 0.06,-0.49l0.004,-0.031l-2.252,0l-0.064,-0.01c-0.019,-0.01 -0.04,-0.017 -0.057,-0.029c-0.036,-0.026 -0.062,-0.062 -0.075,-0.104c-0.007,-0.02 -0.007,-0.042 -0.01,-0.063l0,-1.237c0.003,-0.021 0.003,-0.043 0.01,-0.064c0.02,-0.062 0.07,-0.112 0.132,-0.132c0.02,-0.007 0.043,-0.007 0.064,-0.01l2.567,0c0.031,-0.1 0.065,-0.199 0.1,-0.298c0.035,-0.098 0.072,-0.195 0.11,-0.291c0.283,-0.691 0.658,-1.341 1.123,-1.925c0.67,-0.843 1.515,-1.543 2.468,-2.044c0.961,-0.504 2.029,-0.802 3.112,-0.868c0.443,-0.027 0.889,-0.018 1.33,0.033c0.725,0.085 1.437,0.281 2.107,0.572c0.231,0.101 0.457,0.212 0.677,0.334c0.072,0.04 0.158,0.073 0.196,0.153c0.009,0.02 0.015,0.041 0.018,0.062c0.002,0.021 0.002,0.043 -0.002,0.064c-0.004,0.02 -0.014,0.04 -0.021,0.06l-0.578,1.072c-0.013,0.017 -0.024,0.037 -0.04,0.052c-0.048,0.046 -0.117,0.065 -0.182,0.052c-0.022,-0.004 -0.041,-0.016 -0.062,-0.023c-0.09,-0.052 -0.09,-0.052 -0.181,-0.102c-0.176,-0.094 -0.355,-0.182 -0.539,-0.259c-0.38,-0.16 -0.778,-0.277 -1.184,-0.349c-1.418,-0.248 -2.915,0.028 -4.154,0.759c-1.147,0.678 -2.072,1.722 -2.601,2.946l6.289,0c0.021,0.003 0.043,0.003 0.063,0.01c0.063,0.02 0.112,0.07 0.133,0.132c0.006,0.021 0.006,0.043 0.01,0.064l0,1.237c-0.004,0.021 -0.004,0.043 -0.01,0.063c-0.021,0.063 -0.07,0.113 -0.133,0.133c-0.02,0.006 -0.042,0.007 -0.063,0.01l-6.683,0c-0.025,0.14 -0.033,0.282 -0.035,0.423c-0.002,0.108 -0.003,0.216 0.005,0.323c0.017,0.159 0.043,0.317 0.062,0.476l0.001,0.015l6.732,0l0.064,0.01c0.019,0.009 0.038,0.019 0.057,0.029c0.04,0.04 0.057,0.047 0.075,0.103c0.007,0.02 0.007,0.042 0.01,0.064l0,1.236c-0.003,0.021 -0.003,0.043 -0.01,0.064c-0.02,0.062 -0.07,0.112 -0.132,0.132c-0.02,0.007 -0.042,0.007 -0.064,0.01l-6.302,0Zm4.753,-41.138c-0.487,0.009 -0.972,0.043 -1.454,0.11c-1.12,0.156 -2.217,0.479 -3.243,0.956c-0.88,0.408 -1.707,0.929 -2.457,1.544c-1.104,0.907 -2.038,2.019 -2.737,3.266c-0.575,1.025 -0.992,2.14 -1.227,3.292c-0.264,1.292 -0.306,2.628 -0.125,3.933c0.162,1.167 0.506,2.308 1.016,3.37c0.598,1.248 1.423,2.384 2.422,3.342c1.036,0.993 2.258,1.789 3.586,2.333c1.383,0.567 2.873,0.855 4.367,0.855c1.355,0 2.709,-0.232 3.984,-0.693c1.052,-0.38 2.048,-0.914 2.948,-1.579c1.113,-0.822 2.077,-1.847 2.827,-3.01c0.583,-0.903 1.037,-1.888 1.345,-2.917c0.377,-1.261 0.53,-2.585 0.464,-3.898c-0.065,-1.292 -0.348,-2.574 -0.841,-3.771c-0.529,-1.286 -1.293,-2.472 -2.246,-3.485c-1.016,-1.08 -2.238,-1.961 -3.585,-2.582c-1.037,-0.478 -2.144,-0.801 -3.276,-0.956c-0.488,-0.067 -0.978,-0.101 -1.471,-0.11c-0.149,-0.001 -0.148,-0.001 -0.297,0Zm0.766,20.61l-1.154,0c-0.022,-0.003 -0.044,-0.003 -0.064,-0.01c-0.062,-0.02 -0.112,-0.07 -0.133,-0.132c-0.006,-0.021 -0.006,-0.043 -0.01,-0.064l0,-2.307c-0.076,-0.018 -0.152,-0.037 -0.227,-0.057c-0.077,-0.021 -0.154,-0.044 -0.23,-0.067c-0.298,-0.097 -0.587,-0.215 -0.863,-0.363c-0.179,-0.097 -0.351,-0.205 -0.515,-0.325c-0.08,-0.059 -0.156,-0.121 -0.233,-0.185c-0.17,-0.14 -0.331,-0.288 -0.476,-0.454c-0.265,-0.305 -0.477,-0.656 -0.618,-1.034c-0.124,-0.331 -0.195,-0.68 -0.213,-1.032c-0.001,-0.032 -0.002,-0.064 -0.003,-0.097c-0.002,-0.075 -0.01,-0.152 0.037,-0.217c0.012,-0.018 0.028,-0.034 0.045,-0.046c0.018,-0.013 0.038,-0.024 0.058,-0.03c0.021,-0.007 0.043,-0.007 0.064,-0.011l1.237,0l0.063,0.01c0.019,0.01 0.039,0.02 0.058,0.029c0.039,0.039 0.056,0.047 0.075,0.102c0.013,0.041 0.01,0.073 0.011,0.114c0.001,0.046 0.002,0.051 0.005,0.097c0.005,0.049 0.011,0.097 0.018,0.145c0.028,0.162 0.074,0.319 0.143,0.469c0.077,0.168 0.182,0.326 0.307,0.463c0.062,0.068 0.129,0.128 0.198,0.189c0.103,0.09 0.209,0.173 0.326,0.244c0.261,0.159 0.553,0.264 0.851,0.326c0.545,0.113 1.121,0.09 1.655,-0.068c0.216,-0.064 0.425,-0.151 0.62,-0.265c0.083,-0.048 0.165,-0.1 0.24,-0.16c0.161,-0.129 0.299,-0.295 0.405,-0.471c0.094,-0.155 0.164,-0.325 0.208,-0.501c0.123,-0.496 0.025,-1.033 -0.262,-1.455c-0.069,-0.1 -0.147,-0.193 -0.234,-0.278c-0.04,-0.041 -0.084,-0.076 -0.127,-0.115c-0.061,-0.056 -0.119,-0.113 -0.184,-0.164c-0.128,-0.1 -0.267,-0.185 -0.414,-0.255c-0.287,-0.137 -0.6,-0.219 -0.916,-0.252c-0.177,-0.019 -0.355,-0.016 -0.533,-0.021c-0.103,-0.005 -0.103,-0.005 -0.206,-0.012c-0.203,-0.018 -0.404,-0.044 -0.603,-0.085c-0.388,-0.079 -0.766,-0.209 -1.118,-0.39c-0.203,-0.104 -0.396,-0.226 -0.578,-0.364c-0.077,-0.058 -0.149,-0.121 -0.223,-0.183c-0.064,-0.054 -0.13,-0.108 -0.192,-0.165c-0.148,-0.135 -0.285,-0.283 -0.408,-0.441c-0.406,-0.522 -0.646,-1.157 -0.698,-1.815c-0.026,-0.325 -0.008,-0.653 0.061,-0.972c0.081,-0.376 0.23,-0.737 0.428,-1.067c0.149,-0.249 0.327,-0.48 0.525,-0.692c0.088,-0.093 0.182,-0.179 0.275,-0.267c0.057,-0.054 0.055,-0.055 0.113,-0.108c0.079,-0.072 0.16,-0.14 0.245,-0.205c0.335,-0.255 0.717,-0.449 1.12,-0.574c0.178,-0.055 0.361,-0.095 0.545,-0.127l0.056,-0.008l0,-2.291l0.01,-0.063c0.01,-0.02 0.017,-0.041 0.03,-0.058c0.025,-0.035 0.061,-0.061 0.103,-0.075c0.02,-0.006 0.042,-0.007 0.063,-0.01l1.237,0c0.021,0.003 0.043,0.004 0.064,0.01c0.062,0.02 0.112,0.07 0.132,0.133c0.007,0.02 0.007,0.042 0.01,0.063l0,2.291c0.071,0.011 0.142,0.023 0.213,0.037c0.079,0.016 0.078,0.016 0.156,0.034c0.177,0.044 0.352,0.096 0.521,0.163c0.41,0.161 0.786,0.394 1.102,0.701c0.051,0.041 0.101,0.084 0.15,0.127c0.211,0.189 0.401,0.4 0.561,0.634c0.282,0.409 0.469,0.879 0.548,1.369c0.026,0.16 0.041,0.321 0.046,0.482c0.002,0.076 0.009,0.153 -0.038,0.218c-0.013,0.018 -0.028,0.033 -0.046,0.046c-0.017,0.013 -0.037,0.023 -0.057,0.03c-0.021,0.007 -0.043,0.007 -0.064,0.01l-1.237,0c-0.021,-0.003 -0.043,-0.003 -0.063,-0.01c-0.02,-0.006 -0.04,-0.016 -0.057,-0.028c-0.035,-0.025 -0.061,-0.061 -0.075,-0.101c-0.014,-0.041 -0.011,-0.074 -0.012,-0.115c-0.001,-0.049 -0.002,-0.049 -0.005,-0.097c-0.005,-0.049 -0.01,-0.097 -0.018,-0.145c-0.025,-0.146 -0.064,-0.287 -0.122,-0.423c-0.074,-0.171 -0.173,-0.33 -0.294,-0.471c-0.255,-0.297 -0.601,-0.515 -0.964,-0.655c-0.55,-0.211 -1.164,-0.255 -1.741,-0.139c-0.363,0.073 -0.716,0.212 -1.022,0.422c-0.254,0.175 -0.475,0.395 -0.627,0.664c-0.293,0.518 -0.311,1.162 -0.047,1.696c0.083,0.168 0.193,0.322 0.323,0.458c0.052,0.054 0.108,0.101 0.164,0.152c0.046,0.042 0.09,0.086 0.138,0.127c0.14,0.116 0.295,0.213 0.459,0.292c0.308,0.147 0.643,0.23 0.982,0.259c0.156,0.013 0.312,0.01 0.468,0.014c0.104,0.005 0.103,0.005 0.206,0.012c0.169,0.016 0.338,0.035 0.505,0.066c0.422,0.077 0.834,0.212 1.216,0.409c0.202,0.104 0.396,0.226 0.578,0.364c0.077,0.058 0.149,0.12 0.223,0.183c0.051,0.043 0.104,0.085 0.155,0.13c0.15,0.134 0.289,0.281 0.414,0.438c0.424,0.529 0.676,1.178 0.73,1.853c0.026,0.325 0.007,0.653 -0.062,0.972c-0.082,0.376 -0.229,0.737 -0.428,1.067c-0.149,0.249 -0.326,0.481 -0.525,0.692c-0.088,0.093 -0.182,0.18 -0.275,0.267c-0.116,0.109 -0.231,0.217 -0.358,0.313c-0.294,0.223 -0.622,0.4 -0.969,0.524c-0.227,0.08 -0.459,0.136 -0.696,0.176l-0.056,0.009l0,2.291l-0.01,0.064c-0.01,0.019 -0.017,0.04 -0.029,0.057c-0.026,0.035 -0.062,0.061 -0.103,0.075c-0.021,0.007 -0.042,0.007 -0.064,0.01Z" style="fill:#dd4f05;"></path>
</svg>
