<svg xmlns="http://www.w3.org/2000/svg" width="45" height="41.4" viewBox="0 0 45 41.4"><path d="M18.6 1.6c3.9 0 7 3.1 7 7s-3.1 7-7 7-7-3.1-7-7c0-3.8 3.1-7 7-7zm0 15.6c4.8 0 8.7-3.9 8.7-8.7S23.4 0 18.6 0 9.9 3.9 9.9 8.7s4 8.5 8.7 8.5zm1.1 10.5l5.5-10.3 6 2.2c.4.1.8.3 1.1.5 1.1.6 2.1 1.6 2.7 2.6v.1c.3.6.5 1.1.7 1.7l-1.3.5c-.1-.4-.3-.8-.6-1.4v-.1c-.5-.8-1.3-1.5-2.1-2-.1 0-.3-.1-.4-.2l-.1-.1c-.1-.1-.3-.1-.4-.2L26 19.5l-5.3 9.9h-4l-5.3-9.9-4.8 1.7c-1.4.4-2.5 1.4-3.1 2.5-.7 1.3-1 2.4-1 3.5v.2c0 .1-.6 2.6-.8 7.5h28.1v1.7H0v-.8c.2-5.1.7-7.9.8-8.4 0-1.4.4-2.8 1.3-4.3.8-1.5 2.2-2.6 3.9-3.2l6.2-2.4 5.5 10.3h2v-.1zM35 31.6l1.6-3.2 1.6 3.2c.1.2.3.4.6.4l3.5.5-2.6 2.5c-.1.1-.2.4-.2.6l.6 3.5-3.1-1.5c-.1-.1-.2-.1-.4-.1-.1 0-.2 0-.4.1l-3.1 1.7.6-3.5c0-.2 0-.5-.2-.7l-2.6-2.5 3.5-.5c.3-.1.5-.3.6-.5zm-5.9-.4c-.3 0-.5.2-.6.5s0 .6.2.8l3.4 3.3-.8 4.7c-.1.3.1.6.3.7.1.1.3.1.4.1.1 0 .2 0 .4-.1l4.3-2.3 4.3 2.3c.3.1.6.1.8-.1.2-.2.3-.5.3-.7l-.8-4.7 3.4-3.3c.2-.2.3-.5.2-.8s-.3-.5-.6-.5l-4.8-.6-2.1-4.3c-.3-.5-1.1-.5-1.5 0l-2.1 4.3-4.7.7z"></path></svg>