<svg xmlns="http://www.w3.org/2000/svg" width="47" height="42.9" viewBox="0 0 47 42.9"><style>.st0{fill-rule:evenodd;clip-rule:evenodd}</style><path class="st0" d="M45.3 16.3c-.4 1-1.7 1.6-2.8 1.1-.5-.2-.9-.6-1.1-1l-.7-1.7-2.3 5.5-11.5-4.9 2.3-5.5-1.7.6c-.5.2-1 .2-1.6 0-1-.4-1.6-1.7-1.1-2.8.4-1 1.7-1.6 2.7-1.1.5.2.8.6 1.1 1l.7 1.7 2.4-5.5L37.2 6l-.6-1.7c-.2-.5-.2-1 0-1.6.4-1 1.7-1.6 2.8-1.1 1 .4 1.6 1.7 1.1 2.7-.2.5-.6.9-1 1.1l-1.7.7 5.5 2.3-2.2 5.6 1.7-.6c.5-.2 1-.2 1.6 0 .5.2.9.6 1.1 1.1 0 .6 0 1.3-.2 1.8zm1.5-2.3c-.4-.9-1-1.6-2-2-.4-.2-.7-.2-1.1-.3l1.7-4-4-1.7c.3-.3.5-.6.6-1 .7-1.9-.1-3.9-2-4.8-.5-.1-1-.2-1.5-.2-1.5 0-2.8.8-3.3 2.3-.2.4-.2.8-.3 1.1l-4-1.7-1.7 4c-.3-.3-.6-.5-1-.6-.4-.2-.9-.3-1.5-.3-1.5 0-2.8.8-3.3 2.3-.7 1.9.1 4 2 4.8.4.2.7.2 1.1.3l-1.7 4 14.4 6 1.7-4c.3.3.6.5 1 .6.4.2.9.3 1.5.3 1.5 0 2.8-.8 3.3-2.3.4-.8.4-1.9.1-2.8zm-34-3.9L14 8.7c.4-.4.6-.9.6-1.5 0-1.1-.9-2.1-2.1-2.1-1.1 0-2.1.9-2.1 2.1 0 .5.2 1 .6 1.3l1.2 1.3h-6v6L5 14.7c-.4-.3-.9-.5-1.5-.5-1.1 0-2.1.9-2.1 2.1s.9 2.1 2.1 2.1c.5 0 1-.2 1.5-.6l1.3-1.2v6h12.4v-2.8c-.3.1-.7.2-1.1.2-2 0-3.6-1.7-3.6-3.6s1.7-3.6 3.6-3.6c.4 0 .7.1 1.1.2v-2.8h-5.9zm20.2 14H20.5v5.7l-1.3-1.2c-.4-.3-.9-.5-1.5-.5-.3 0-.6.1-.8.2-.7.3-1.2 1.1-1.2 2 0 1.1.9 2.1 2.1 2.1.2 0 .5 0 .7-.1.2-.1.4-.2.6-.4l1.3-1.2v6h6L25.2 38c-.3.4-.5.9-.5 1.5 0 1.1.9 2.1 2.1 2.1 1.1 0 2.1-.9 2.1-2.1 0-.5-.2-1-.6-1.5L27 36.5h6v-6l1.3 1.2c.4.3.9.5 1.5.5 1.1 0 2.1-.9 2.1-2.1S37 28 35.8 28c-.7 0-1.1.3-1.5.6L33 30v-5.9zm-14.1 0H6.3v6L5 28.8c-.4-.3-.9-.5-1.5-.5-1.1 0-2.1.9-2.1 2.1 0 1.1.9 2.1 2.1 2.1.5 0 1-.2 1.5-.6l1.3-1.2v6h6L11.1 38c-.3.4-.5.9-.5 1.5 0 1.1.9 2.1 2.1 2.1 1.1 0 2.1-.9 2.1-2.1 0-.5-.2-1-.6-1.5L13 36.7h5.9v-2.9c-.3.1-.7.2-1.1.2-2 0-3.6-1.7-3.6-3.6 0-1.5.9-2.8 2.3-3.3.4-.2.9-.3 1.5-.3.4 0 .7.1 1.1.2v-2.9zM9.1 8.4c-.1-.3-.2-.7-.2-1.1 0-2.1 1.7-3.7 3.7-3.6 2 0 3.6 1.7 3.6 3.6 0 .4-.1.7-.2 1.1h4.4V16l-1.3-1.2c-.4-.3-.9-.5-1.5-.5-1.1 0-2.1.9-2.1 2.1s.9 2.1 2.1 2.1c.5 0 1-.2 1.5-.6l1.3-1.2v6h13.9v4.4c.3-.1.7-.2 1.1-.2 2 0 3.6 1.7 3.6 3.6s-1.7 3.6-3.6 3.6c-.3 0-.7-.1-1.1-.2v4.4H30c.1.4.2.8.2 1.2 0 2-1.7 3.6-3.6 3.6S23 41.4 23 39.5c0-.4.1-.8.2-1.2H16c.1.4.2.8.2 1.2 0 2-1.7 3.6-3.6 3.6S9 41.4 9 39.5c0-.4.1-.8.2-1.2H4.8v-4.4c-.3.1-.7.2-1.1.2-2 0-3.6-1.7-3.6-3.6s1.7-3.6 3.6-3.6c.4 0 .7.1 1.1.2v-7.3c-.3.1-.7.2-1.1.2-2 0-3.6-1.7-3.6-3.6s1.7-3.6 3.6-3.6c.4 0 .7.1 1.1.2V8.4h4.3z"></path></svg>