<svg xmlns="http://www.w3.org/2000/svg" width="41.8" height="41.8" viewBox="0 0 41.8 41.8"><path d="M18.9 17.6h-2c0-1.4.5-2.8 1.6-3.8 1-1 2.4-1.6 3.8-1.6s2.8.5 3.8 1.6c1 1 1.6 2.4 1.6 3.8s-.5 2.6-1.7 3.9c0 .1-1.6 1.6-2.2 3.9-.3.8-.4 1.6-.4 2.4h-2c0-.9.1-2 .4-2.9.8-2.9 2.6-4.6 2.8-4.7.8-.8 1.2-1.6 1.2-2.5 0-.9-.4-1.7-1-2.4-1.2-1.3-3.4-1.3-4.7 0-.9.7-1.3 1.5-1.2 2.3zM21.4 32h2v-2.1h-2V32zm.8-24.2c8 0 14.5 6.5 14.5 14.5 0 3.1-1 6.3-2.9 8.8l-.4.4 1.3 3.5-4.2-1-.4.4c-2.2 1.8-5.6 2.5-8.1 2.5-8 0-14.5-6.5-14.5-14.5.3-8.3 6.7-14.6 14.7-14.6zm0 31c1.3 0 5.8-.3 9-2.6l6.8 1.7-2.4-6c2-2.8 3-6 3-9.6.1-9.2-7.4-16.5-16.4-16.5-9.2 0-16.5 7.5-16.5 16.5s7.5 16.5 16.5 16.5z"></path></svg>