<svg xmlns="http://www.w3.org/2000/svg" width="45" height="45.5" viewBox="0 0 45 45.5"><style>.st0{fill-rule:evenodd;clip-rule:evenodd}</style><path class="st0" d="M21.6 6.6h1.8V0h-1.8v6.6zm17.7-1.9l-1.6-.9-3.3 5.7 1.6.9 3.3-5.7zM10.5 9.5L7.2 3.8l-1.6.9 3.3 5.7 1.6-.9zm26.9 15.4l-3.3-6.8-3.5 7.3 1.7.7 1.8-3.9 2.1 4.4 4.8.6-3.4 3.3.9 4.8-3.8-2-.9 1.7 7.1 3.8-1.3-7.5L45 26l-7.6-1.1zM6.6 35.3l.9-4.8L4 27.3l4.8-.6 2.1-4.4 1.8 3.9 1.7-.7-3.5-7.3L7.6 25 0 26l5.5 5.3-1.3 7.5 7.1-3.8-.9-1.6-3.8 1.9zm15.9 3.5L16 42.2l1.3-7.2-5.3-5.1 7.2-1 3.2-6.6 3.2 6.6 7.2 1-5.2 5.1 1.3 7.2-6.4-3.4zm14.4-10.2l-10-1.3-4.4-9-4.4 9-10 1.3 7.2 7-1.7 9.9 8.9-4.8 8.9 4.8-1.7-9.9 7.2-7z"></path></svg>